<?xml version="1.0" encoding="utf-8"?>
<!-- Generator: Adobe Illustrator 27.1.1, SVG Export Plug-In . SVG Version: 6.00 Build 0)  -->
<svg version="1.1" id="Layer_1" xmlns="http://www.w3.org/2000/svg" xmlns:xlink="http://www.w3.org/1999/xlink" x="0px" y="0px"
	 viewBox="0 0 16.73 15.72" style="enable-background:new 0 0 16.73 15.72;" xml:space="preserve">
<style type="text/css">
	.st0{fill:#FFFFFF;}
</style>
<g>
	<path class="st0" d="M7.54,3.37v3.56h1.65V3.38C8.91,3.33,8.63,3.31,8.34,3.31C8.07,3.31,7.8,3.33,7.54,3.37z"/>
	<path class="st0" d="M8.36,0C3.74,0,0,3.52,0,7.86s3.74,7.86,8.36,7.86s8.36-3.52,8.36-7.86S12.98,0,8.36,0z M8.34,13.97
		c-3.65,0-6.63-2.78-6.63-6.21s2.97-6.21,6.63-6.21s6.63,2.78,6.63,6.21S12,13.97,8.34,13.97z"/>
	<path class="st0" d="M7.54,12.16c0.26,0.04,0.53,0.06,0.81,0.06c0.29,0,0.57-0.02,0.84-0.07V9.33H7.54V12.16z"/>
	<path class="st0" d="M11.73,4.56v6.41c0.92-0.81,1.49-1.95,1.49-3.2C13.22,6.51,12.65,5.37,11.73,4.56z"/>
	<path class="st0" d="M3.46,7.77c0,1.27,0.59,2.42,1.53,3.24V4.53C4.05,5.34,3.46,6.49,3.46,7.77z"/>
</g>
</svg>
